<svg id="Layer_2_00000072264698322189290910000007544615589061096117_" enable-background="new 0 0 512 512" height="30" viewBox="0 0 512 512" width="30" xmlns="http://www.w3.org/2000/svg"><g id="Currency"><path id="Bitcoin" d="m388.1 173.2c-4.5-47.1-45.1-62.8-96.4-67.3v-65.3h-39.7v63.5c-10.4 0-21.1.2-31.7.4v-64h-39.7v65.2c-8.6.2-17.1.3-25.3.3h-54.8v42.4s29.3-.6 28.9 0c16.1 0 21.3 9.3 22.9 17.4v74.3c1.1 0 2.6.1 4.2.3-1.3 0-2.7 0-4.2 0v104.1c-.7 5.1-3.7 13.1-14.9 13.2.5.5-28.9 0-28.9 0l-7.9 47.4h51.7c9.6 0 19.1.2 28.4.2v66h39.7v-65.3c10.9.2 21.4.3 31.7.3v65h39.7v-65.9c66.8-3.8 113.5-20.7 119.3-83.4 4.7-50.5-19.1-73-57-82.1 22.9-11.7 37.3-32.3 34-66.7zm-55.6 141.1c0 49.3-84.4 43.7-111.4 43.7v-87.5c27 .1 111.4-7.6 111.4 43.8zm-18.5-123.4c0 44.9-70.4 39.6-92.9 39.6v-79.3c22.5.1 92.9-7.1 92.9 39.7z"/></g></svg>