<svg id="Layer_1" enable-background="new 0 0 452.252 452.252" height="30" viewBox="0 0 452.252 452.252" width="30" xmlns="http://www.w3.org/2000/svg"><g><path d="m361.846 195.153-121.859 64.04c-2.664 1.4-5.861-.532-5.861-3.541v-251.645c0-3.941 5.098-5.507 7.31-2.245l123.31 181.821c2.658 3.904 1.359 9.335-2.9 11.57z"/><path d="m222.404 314.524-132-69.37c-3.911-2.055-5.415-6.892-3.36-10.803 2.057-3.911 6.894-5.413 10.804-3.36l128.278 67.414 128.278-67.414c3.91-2.056 8.748-.551 10.804 3.36 2.055 3.911.551 8.748-3.36 10.803l-132 69.37c-2.33 1.225-5.113 1.225-7.444 0z"/><path d="m218.126 4.007v251.645c0 3.009-3.197 4.941-5.861 3.541l-121.859-64.04c-4.266-2.238-5.553-7.673-2.9-11.57l123.31-181.821c2.212-3.262 7.31-1.696 7.31 2.245z"/><path d="m361.496 292.283-120.184 158.38c-2.317 3.053-7.186 1.415-7.186-2.418v-102.991c0-1.478.815-2.835 2.119-3.53l115.121-61.341c3.32-1.77 7.41-.99 9.85 1.87s2.55 7.03.28 10.03z"/><path d="m218.126 345.254v102.991c0 3.833-4.87 5.471-7.186 2.418l-120.184-158.38c-2.27-3-2.16-7.17.28-10.03s6.54-3.64 9.85-1.87l115.121 61.341c1.304.695 2.119 2.052 2.119 3.53z"/></g></svg>