<svg id="Layer_1" enable-background="new 0 0 136 136" width="30" fill="#FFFFFF" viewBox="0 0 136 136" xmlns="http://www.w3.org/2000/svg"><g><ellipse cx="18.34" cy="69.5" rx="14.34" ry="6.41"/><path d="m51.4501953 32.6499634c-8.1801758 0-14.3400879 2.7600098-14.3400879 6.4100342 0 3.6599731 6.1599121 6.4099731 14.3400879 6.4099731 8.1699219 0 14.329834-2.75 14.329834-6.4099731 0-3.6500245-6.1599121-6.4100342-14.329834-6.4100342z"/><path d="m117.6601563 16.8200073c8.1799316 0 14.3398437-2.7600097 14.3398437-6.4100342 0-3.6599731-6.1599121-6.4099731-14.3398437-6.4099731-8.170166 0-14.3300781 2.75-14.3300781 6.4099731-.0000001 3.6500245 6.159912 6.4100342 14.3300781 6.4100342z"/><path d="m84.5600586 48.9099731c-8.1799316 0-14.3400879 2.7600098-14.3400879 6.4100342 0 3.6499634 6.1601563 6.4099731 14.3400879 6.4099731 8.1699219 0 14.3300781-2.7600098 14.3300781-6.4099731 0-3.6500244-6.1601562-6.4100342-14.3300781-6.4100342z"/><path d="m37.1101074 43.3357544v82.2542114c0 3.6600342 6.1599121 6.4100342 14.3400879 6.4100342 8.1699219 0 14.329834-2.75 14.329834-6.4100342v-82.2533569c-2.6721191 2.5509644-7.8342285 4.1331177-14.3293457 4.1331177-6.5004883 0-11.6667481-1.5824585-14.3405762-4.1339722z"/><path d="m103.3300781 14.6878052v110.9021606c0 3.6600342 6.1599121 6.4100342 14.3300782 6.4100342 8.1799316 0 14.3398437-2.75 14.3398437-6.4100342v-110.9040527c-2.6733398 2.5517578-7.8393555 4.1343994-14.340332 4.1343994-6.4953614 0-11.6572266-1.5819702-14.3295899-4.1325073z"/><path d="m4 73.7763672v51.8135986c0 3.6600342 6.1601563 6.4100342 14.3400879 6.4100342 8.1699219 0 14.3400879-2.75 14.3400879-6.4100342v-51.8137817c-2.673584 2.5514526-7.8393555 4.1339722-14.3398438 4.1339722s-11.6665039-1.5824585-14.340332-4.1337891z"/><path d="m70.2199707 59.5962524v65.9937134c0 3.6600342 6.1601563 6.4100342 14.3400879 6.4100342 8.1699219 0 14.3300781-2.75 14.3300781-6.4100342v-65.9924316c-2.6723633 2.5508423-7.8344727 4.1329346-14.3300781 4.1329346-6.5007324 0-11.6667481-1.5826417-14.3400879-4.1342164z"/></g></svg>